# xmcd
#
# Track frame offsets: 
#        150
#        17630
#        43850
#        61383
#        81079
#        108934
#        139428
#        157769
#        175420
#        191926
#        230460
#        253852
#
# Disc length: 3766 seconds
#
# Revision: 0
# Processed by: cddbd v1.5.1PL2 Copyright (c) Steve Scherf et al.
# Submitted via: ExactAudioCopy v0.95b3
#
DISCID=a40eb40c
DTITLE=Curtis Mayfield - Move On Up - The Gold Of Curtis Mayfield CD2
DYEAR=2003
DGENRE=Soul
TTITLE0=Ice Nine (Intro)
TTITLE1=Back To The World
TTITLE2=It's All Right
TTITLE3=Gypsy Woman
TTITLE4=Freddie's Dead
TTITLE5=Pusher Man
TTITLE6=We Gotta Have Peace
TTITLE7=We've Only Just Begun
TTITLE8=People Get Ready
TTITLE9=Move On Up
TTITLE10=Don't Worry (If There's A Hell Below)
TTITLE11=When Seasons Change
EXTD=
EXTT0=
EXTT1=
EXTT2=
EXTT3=
EXTT4=
EXTT5=
EXTT6=
EXTT7=
EXTT8=
EXTT9=
EXTT10=
EXTT11=
PLAYORDER=
